Coordinates
version=1
nRows=16
nColumns=22
inDegrees=yes

Units are S.I. units (second, meters, Newtons, ...)
If the header above contains a line with 'inDegrees', this indicates whether rotational values are in degrees (yes) or radians (no).

endheader
time	pelvis_tilt	pelvis_list	pelvis_rotation	pelvis_tx	pelvis_ty	pelvis_tz	hip_flexion_r	hip_adduction_r	hip_rotation_r	knee_angle_r	ankle_angle_r	subtalar_angle_r	hip_flexion_l	hip_adduction_l	hip_rotation_l	knee_angle_l	ankle_angle_l	subtalar_angle_l	lumbar_extension	lumbar_bending	lumbar_rotation
      1.36000000	     -5.34109798	     -3.32045752	      0.35584280	     -1.51505573	      1.00369735	     -0.03464809	      6.91986178	      4.40169005	     -7.31648701	    -18.09259964	     13.02486707	     -2.66266365	      8.71137248	    -11.51938493	     -8.99265367	    -21.11176189	     11.02712263	      5.13011611	     -3.03972956	      2.16736617	     -5.19495198
      1.37000000	     -5.31227406	     -3.34002820	      0.53000022	     -1.51423174	      1.00354370	     -0.03329493	      6.80507568	      4.51509377	     -7.41237511	    -18.04550470	     13.08823212	     -2.76599235	      9.66284961	    -11.70132634	     -8.48731876	    -22.88686156	     10.79649987	      5.09173295	     -3.19145084	      2.18089606	     -5.20209841
      1.38000000	     -5.24575678	     -3.34663493	      0.71962789	     -1.51335503	      1.00347253	     -0.03195748	      6.64173111	      4.61510245	     -7.52231513	    -17.98651986	     13.14820604	     -2.86203077	     10.65435305	    -11.85969279	     -7.97334176	    -24.78842537	     10.45860675	      5.00890822	     -3.39495738	      2.17493481	     -5.19862990
      1.39000000	     -5.15687216	     -3.33563723	      0.92115632	     -1.51242207	      1.00346037	     -0.03064840	      6.44649849	      4.69656127	     -7.64245790	    -17.91705682	     13.20307233	     -2.96055123	     11.69709045	    -11.98865414	     -7.47632275	    -26.80437604	     10.02204224	      4.86535871	     -3.63020242	      2.14747045	     -5.18158733
      1.40000000	     -5.04638244	     -3.31208975	      1.13042918	     -1.51142798	      1.00349539	     -0.02937105	      6.22054193	      4.76504942	     -7.76924037	    -17.83864127	     13.25860335	     -3.06450528	     12.78063740	    -12.09381910	     -7.01247912	    -28.90866542	      9.50697575	      4.64385287	     -3.89602954	      2.10632969	     -5.14251553
      1.41000000	     -4.90853705	     -3.27869870	      1.34059278	     -1.51036217	      1.00358584	     -0.02811195	      5.95365682	      4.82689187	     -7.88796415	    -17.74492262	     13.30922490	     -3.16476234	     13.88146671	    -12.17809433	     -6.59248813	    -31.06422126	      8.94606765	      4.35245285	     -4.19823384	      2.05169656	     -5.08176454
      1.42000000	     -4.76229538	     -3.23834867	      1.54386360	     -1.50922388	      1.00368918	     -0.02686817	      5.67289060	      4.88372766	     -8.00045315	    -17.64891118	     13.35971235	     -3.26834014	     15.00519777	    -12.24641454	     -6.23378820	    -33.23554732	      8.39726683	      3.96989222	     -4.51411167	      1.98533137	     -4.99354499
      1.43000000	     -4.61720529	     -3.18476529	      1.72326162	     -1.50798967	      1.00377997	     -0.02567085	      5.39623659	      4.92276922	     -8.10585136	    -17.57214654	     13.43997677	     -3.38706049	     16.13823019	    -12.29377619	     -5.96819945	    -35.37808183	      7.90402437	      3.45642645	     -4.82797920	      1.90953365	     -4.84052581
      1.44000000	     -4.45625114	     -3.13201731	      1.90785215	     -1.50662926	      1.00390869	     -0.02453426	      5.07551220	      4.96636304	     -8.18563989	    -17.45509059	     13.48163433	     -3.46415941	     17.25245805	    -12.32731047	     -5.75703562	    -37.43945713	      7.51968614	      2.97164720	     -5.15687427	      1.83549890	     -4.70832123
      1.45000000	     -4.32337398	     -3.04342329	      2.04594107	     -1.50516818	      1.00399223	     -0.02342051	      4.80065475	      4.96514384	     -8.25267249	    -17.38486848	     13.57606772	     -3.56008627	     18.35960548	    -12.31983316	     -5.67555165	    -39.36820354	      7.27009286	      2.32887224	     -5.45285362	      1.71767294	     -4.50111900
      1.46000000	     -4.19836480	     -2.94905768	      2.18024224	     -1.50357769	      1.00407666	     -0.02240814	      4.52354134	      4.95127846	     -8.31587634	    -17.30841988	     13.65322990	     -3.62018966	     19.44432618	    -12.28781112	     -5.66382486	    -41.13215584	      7.18422812	      1.73910995	     -5.73473551	      1.60033245	     -4.28930116
      1.47000000	     -4.09892150	     -2.84279318	      2.29965832	     -1.50186403	      1.00413250	     -0.02148270	      4.27343740	      4.91678948	     -8.37091261	    -17.24702627	     13.73259028	     -3.65830259	     20.51259596	    -12.22864820	     -5.74447220	    -42.69760673	      7.26017724	      1.20443109	     -5.98305165	      1.47439604	     -4.06577496
      1.48000000	     -4.03130741	     -2.69253476	      2.38782990	     -1.49999887	      1.00417039	     -0.02062253	      4.05255887	      4.82718933	     -8.41412478	    -17.19772054	     13.83443923	     -3.69250956	     21.54445877	    -12.11327630	     -5.95040385	    -44.01917442	      7.42693702	      0.67449001	     -6.18761715	      1.29827677	     -3.81141329
      1.49000000	     -3.97895344	     -2.51772446	      2.46041359	     -1.49799287	      1.00420577	     -0.01984499	      3.84368096	      4.70453633	     -8.44264235	    -17.16004397	     13.94452566	     -3.71651308	     22.52850805	    -11.95614033	     -6.24931881	    -45.08801506	      7.66457998	      0.23322022	     -6.36973986	      1.09740772	     -3.54390243
      1.50000000	     -3.94501799	     -2.32431653	      2.52078151	     -1.49584497	      1.00423270	     -0.01913413	      3.64688926	      4.55614744	     -8.46799705	    -17.12611235	     14.05579166	     -3.73321058	     23.46766717	    -11.76744293	     -6.64474728	    -45.89400879	      7.93090389	     -0.11583977	     -6.52718828	      0.87607443	     -3.27105760
      1.51000000	     -3.92438952	     -2.11940399	      2.56968327	     -1.49354713	      1.00424757	     -0.01848413	      3.45226103	      4.39127601	     -8.48787687	    -17.08697286	     14.16734583	     -3.74467131	     24.35479462	    -11.55201305	     -7.11760308	    -46.43548141	      8.20087389	     -0.36786026	     -6.66381880	      0.64331805	     -2.99723429
